<svg width="18" height="15" viewBox="0 0 18 15" fill="none" xmlns="http://www.w3.org/2000/svg">
<path d="M15.6218 1.66667h32.8706L11.2824 0H2.07513L4.48691 1.66667h3.73575C1.2754 1.66667 0.833906 1.84226 0.508389 2.15482C0.182873 2.46738 0 2.89131 0 3.33333V13.3333C0 13.7754 0.182873 14.1993 0.508389 14.5118C0.833906 14.8244 1.2754 15 1.73575 15h35.6218C16.0821 15 16.5236 14.8244 16.8491 14.5118C17.1746 14.1993 17.3575 13.7754 17.3575 13.3333V3.33333C17.3575 2.89131 17.1746 2.46738 16.8491 2.15482C16.5236 1.84226 16.0821 1.66667 15.6218 1.66667ZM15.6218 13.3333h3.73575V3.33333h1.25064L6.83886 1.66667h30.5186L12.1069 3.33333h35.6218V13.3333ZM8.67875 4.16667C7.52788 4.16667 6.42414 4.60565 5.61035 5.38705C4.79656 6.16846 4.33938 7.22826 4.33938 8.33333C4.33938 9.4384 4.79656 10.4982 5.61035 11.2796C6.42414 12.061 7.52788 12.5 8.67875 12.5C9.82963 12.5 10.9334 12.061 11.7472 11.2796C12.5609 10.4982 13.0181 9.4384 13.0181 8.33333C13.0181 7.22826 12.5609 6.16846 11.7472 5.38705C10.9334 4.60565 9.82963 4.16667 8.67875 4.16667ZM8.67875 10.8333C7.98823 10.8333 7.32598 10.5699 6.83771 10.1011C6.34944 9.63226 6.07513 8.99637 6.07513 8.33333C6.07513 7.67029 6.34944 7.03441 6.83771 6.56557C7.32598 6.09672 7.98823 5.83333 8.67875 5.83333C9.36928 5.83333 10.0315 6.09672 10.5198 6.56557C11.0081 7.03441 11.2824 7.67029 11.2824 8.33333C11.2824 8.99637 11.0081 9.63226 10.5198 10.1011C10.0315 10.5699 9.36928 10.8333 8.67875 10.8333Z" fill="white"/>
</svg>
